<mxfile host="app.diagrams.net" modified="2023-09-28T20:13:12.691Z" agent="Mozilla/5.0 (Windows NT 10.0; Win64; x64) AppleWebKit/537.36 (KHTML, like Gecko) Chrome/117.0.0.0 Safari/537.36" etag="FF-fOjGPwTP8ybE9u3WY" version="22.0.0" type="github">
  <diagram name="Page-1" id="UczJe5QvCEf2qfr6nweE">
    <mxGraphModel dx="1434" dy="792" grid="1" gridSize="10" guides="1" tooltips="1" connect="1" arrows="1" fold="1" page="1" pageScale="1" pageWidth="850" pageHeight="1100" math="0" shadow="0">
      <root>
        <mxCell id="0" />
        <mxCell id="1" parent="0" />
        <mxCell id="m2GISxBokxtjwMpfDroy-24" value="Access pages" style="rounded=0;whiteSpace=wrap;html=1;labelPosition=center;verticalLabelPosition=middle;align=center;verticalAlign=top;spacingTop=10;" vertex="1" parent="1">
          <mxGeometry x="240" y="40" width="280" height="120" as="geometry" />
        </mxCell>
        <mxCell id="m2GISxBokxtjwMpfDroy-1" value="Static Pages" style="rounded=0;whiteSpace=wrap;html=1;verticalAlign=top;spacingTop=10;" vertex="1" parent="1">
          <mxGeometry x="40" y="20" width="160" height="460" as="geometry" />
        </mxCell>
        <mxCell id="m2GISxBokxtjwMpfDroy-2" value="FAQ" style="rounded=0;whiteSpace=wrap;html=1;" vertex="1" parent="1">
          <mxGeometry x="60" y="60" width="120" height="60" as="geometry" />
        </mxCell>
        <mxCell id="m2GISxBokxtjwMpfDroy-3" value="Terms of Service" style="rounded=0;whiteSpace=wrap;html=1;" vertex="1" parent="1">
          <mxGeometry x="60" y="230" width="120" height="60" as="geometry" />
        </mxCell>
        <mxCell id="m2GISxBokxtjwMpfDroy-4" value="Contact Us" style="rounded=0;whiteSpace=wrap;html=1;" vertex="1" parent="1">
          <mxGeometry x="60" y="140" width="120" height="60" as="geometry" />
        </mxCell>
        <mxCell id="m2GISxBokxtjwMpfDroy-5" value="About us" style="rounded=0;whiteSpace=wrap;html=1;" vertex="1" parent="1">
          <mxGeometry x="60" y="400" width="120" height="60" as="geometry" />
        </mxCell>
        <mxCell id="m2GISxBokxtjwMpfDroy-6" value="Privacy Policy" style="rounded=0;whiteSpace=wrap;html=1;" vertex="1" parent="1">
          <mxGeometry x="60" y="320" width="120" height="60" as="geometry" />
        </mxCell>
        <mxCell id="m2GISxBokxtjwMpfDroy-7" value="" style="rounded=0;whiteSpace=wrap;html=1;" vertex="1" parent="1">
          <mxGeometry x="300" y="210" width="160" height="100" as="geometry" />
        </mxCell>
        <mxCell id="m2GISxBokxtjwMpfDroy-8" value="User login" style="rounded=0;whiteSpace=wrap;html=1;" vertex="1" parent="1">
          <mxGeometry x="260" y="80" width="120" height="60" as="geometry" />
        </mxCell>
        <mxCell id="m2GISxBokxtjwMpfDroy-9" value="User registration" style="rounded=0;whiteSpace=wrap;html=1;" vertex="1" parent="1">
          <mxGeometry x="380" y="80" width="120" height="60" as="geometry" />
        </mxCell>
        <mxCell id="m2GISxBokxtjwMpfDroy-10" value="Home page" style="rounded=0;whiteSpace=wrap;html=1;" vertex="1" parent="1">
          <mxGeometry x="320" y="230" width="120" height="60" as="geometry" />
        </mxCell>
        <mxCell id="m2GISxBokxtjwMpfDroy-13" value="" style="endArrow=none;html=1;rounded=0;entryX=0.5;entryY=1;entryDx=0;entryDy=0;" edge="1" parent="1" target="m2GISxBokxtjwMpfDroy-8">
          <mxGeometry width="50" height="50" relative="1" as="geometry">
            <mxPoint x="380" y="230" as="sourcePoint" />
            <mxPoint x="450" y="280" as="targetPoint" />
          </mxGeometry>
        </mxCell>
        <mxCell id="m2GISxBokxtjwMpfDroy-14" value="" style="endArrow=none;html=1;rounded=0;entryX=0.5;entryY=1;entryDx=0;entryDy=0;exitX=0.5;exitY=0;exitDx=0;exitDy=0;" edge="1" parent="1" source="m2GISxBokxtjwMpfDroy-10" target="m2GISxBokxtjwMpfDroy-9">
          <mxGeometry width="50" height="50" relative="1" as="geometry">
            <mxPoint x="390" y="220" as="sourcePoint" />
            <mxPoint x="330" y="140" as="targetPoint" />
          </mxGeometry>
        </mxCell>
        <mxCell id="m2GISxBokxtjwMpfDroy-16" value="" style="endArrow=none;html=1;rounded=0;entryX=0.5;entryY=1;entryDx=0;entryDy=0;exitX=0;exitY=0.5;exitDx=0;exitDy=0;" edge="1" parent="1" source="m2GISxBokxtjwMpfDroy-10">
          <mxGeometry width="50" height="50" relative="1" as="geometry">
            <mxPoint x="240" y="170" as="sourcePoint" />
            <mxPoint x="180" y="90" as="targetPoint" />
          </mxGeometry>
        </mxCell>
        <mxCell id="m2GISxBokxtjwMpfDroy-17" value="" style="endArrow=none;html=1;rounded=0;entryX=0.5;entryY=1;entryDx=0;entryDy=0;exitX=0;exitY=0.5;exitDx=0;exitDy=0;" edge="1" parent="1" source="m2GISxBokxtjwMpfDroy-10">
          <mxGeometry width="50" height="50" relative="1" as="geometry">
            <mxPoint x="320" y="330" as="sourcePoint" />
            <mxPoint x="180" y="160" as="targetPoint" />
          </mxGeometry>
        </mxCell>
        <mxCell id="m2GISxBokxtjwMpfDroy-21" value="" style="endArrow=none;html=1;rounded=0;entryX=0;entryY=0.5;entryDx=0;entryDy=0;exitX=1;exitY=0.5;exitDx=0;exitDy=0;" edge="1" parent="1" source="m2GISxBokxtjwMpfDroy-3" target="m2GISxBokxtjwMpfDroy-10">
          <mxGeometry width="50" height="50" relative="1" as="geometry">
            <mxPoint x="400" y="330" as="sourcePoint" />
            <mxPoint x="450" y="280" as="targetPoint" />
          </mxGeometry>
        </mxCell>
        <mxCell id="m2GISxBokxtjwMpfDroy-22" value="" style="endArrow=none;html=1;rounded=0;exitX=1;exitY=0.5;exitDx=0;exitDy=0;entryX=0;entryY=0.5;entryDx=0;entryDy=0;" edge="1" parent="1" source="m2GISxBokxtjwMpfDroy-6" target="m2GISxBokxtjwMpfDroy-10">
          <mxGeometry width="50" height="50" relative="1" as="geometry">
            <mxPoint x="400" y="330" as="sourcePoint" />
            <mxPoint x="450" y="280" as="targetPoint" />
          </mxGeometry>
        </mxCell>
        <mxCell id="m2GISxBokxtjwMpfDroy-23" value="" style="endArrow=none;html=1;rounded=0;exitX=1;exitY=0.5;exitDx=0;exitDy=0;entryX=0;entryY=0.5;entryDx=0;entryDy=0;" edge="1" parent="1" source="m2GISxBokxtjwMpfDroy-5" target="m2GISxBokxtjwMpfDroy-10">
          <mxGeometry width="50" height="50" relative="1" as="geometry">
            <mxPoint x="400" y="330" as="sourcePoint" />
            <mxPoint x="450" y="280" as="targetPoint" />
          </mxGeometry>
        </mxCell>
        <mxCell id="m2GISxBokxtjwMpfDroy-25" value="Dashboard" style="rounded=0;whiteSpace=wrap;html=1;labelPosition=center;verticalLabelPosition=middle;align=center;verticalAlign=top;spacingTop=10;" vertex="1" parent="1">
          <mxGeometry x="550" y="157.5" width="300" height="205" as="geometry" />
        </mxCell>
        <mxCell id="m2GISxBokxtjwMpfDroy-26" value="User profile summary" style="rounded=0;whiteSpace=wrap;html=1;" vertex="1" parent="1">
          <mxGeometry x="570" y="202.5" width="120" height="60" as="geometry" />
        </mxCell>
        <mxCell id="m2GISxBokxtjwMpfDroy-27" value="News feed" style="rounded=0;whiteSpace=wrap;html=1;" vertex="1" parent="1">
          <mxGeometry x="710" y="202.5" width="120" height="60" as="geometry" />
        </mxCell>
        <mxCell id="m2GISxBokxtjwMpfDroy-28" value="" style="endArrow=none;html=1;rounded=0;entryX=0;entryY=0.5;entryDx=0;entryDy=0;exitX=1;exitY=0.5;exitDx=0;exitDy=0;" edge="1" parent="1" source="m2GISxBokxtjwMpfDroy-10" target="m2GISxBokxtjwMpfDroy-25">
          <mxGeometry width="50" height="50" relative="1" as="geometry">
            <mxPoint x="440" y="270" as="sourcePoint" />
            <mxPoint x="450" y="280" as="targetPoint" />
          </mxGeometry>
        </mxCell>
        <mxCell id="m2GISxBokxtjwMpfDroy-29" value="Events" style="rounded=0;whiteSpace=wrap;html=1;" vertex="1" parent="1">
          <mxGeometry x="710" y="282.5" width="120" height="60" as="geometry" />
        </mxCell>
        <mxCell id="m2GISxBokxtjwMpfDroy-30" value="Status updates" style="rounded=0;whiteSpace=wrap;html=1;" vertex="1" parent="1">
          <mxGeometry x="570" y="282.5" width="120" height="60" as="geometry" />
        </mxCell>
        <mxCell id="m2GISxBokxtjwMpfDroy-31" value="User Profile" style="rounded=0;whiteSpace=wrap;html=1;labelPosition=center;verticalLabelPosition=middle;align=center;verticalAlign=top;spacingTop=10;" vertex="1" parent="1">
          <mxGeometry x="310" y="400" width="300" height="210" as="geometry" />
        </mxCell>
        <mxCell id="m2GISxBokxtjwMpfDroy-32" value="Edit information" style="rounded=0;whiteSpace=wrap;html=1;" vertex="1" parent="1">
          <mxGeometry x="330" y="450" width="120" height="60" as="geometry" />
        </mxCell>
        <mxCell id="m2GISxBokxtjwMpfDroy-33" value="Upload profile picture" style="rounded=0;whiteSpace=wrap;html=1;" vertex="1" parent="1">
          <mxGeometry x="470" y="450" width="120" height="60" as="geometry" />
        </mxCell>
        <mxCell id="m2GISxBokxtjwMpfDroy-34" value="View followers" style="rounded=0;whiteSpace=wrap;html=1;" vertex="1" parent="1">
          <mxGeometry x="470" y="530" width="120" height="60" as="geometry" />
        </mxCell>
        <mxCell id="m2GISxBokxtjwMpfDroy-35" value="Update user status" style="rounded=0;whiteSpace=wrap;html=1;" vertex="1" parent="1">
          <mxGeometry x="330" y="530" width="120" height="60" as="geometry" />
        </mxCell>
        <mxCell id="m2GISxBokxtjwMpfDroy-36" value="" style="endArrow=none;html=1;rounded=0;entryX=0;entryY=0.5;entryDx=0;entryDy=0;exitX=0.5;exitY=0;exitDx=0;exitDy=0;" edge="1" parent="1" source="m2GISxBokxtjwMpfDroy-31" target="m2GISxBokxtjwMpfDroy-26">
          <mxGeometry width="50" height="50" relative="1" as="geometry">
            <mxPoint x="400" y="330" as="sourcePoint" />
            <mxPoint x="450" y="280" as="targetPoint" />
          </mxGeometry>
        </mxCell>
        <mxCell id="m2GISxBokxtjwMpfDroy-37" value="" style="endArrow=none;html=1;rounded=0;entryX=0.5;entryY=1;entryDx=0;entryDy=0;exitX=0.5;exitY=0;exitDx=0;exitDy=0;" edge="1" parent="1" source="m2GISxBokxtjwMpfDroy-31" target="m2GISxBokxtjwMpfDroy-10">
          <mxGeometry width="50" height="50" relative="1" as="geometry">
            <mxPoint x="400" y="330" as="sourcePoint" />
            <mxPoint x="450" y="280" as="targetPoint" />
          </mxGeometry>
        </mxCell>
        <mxCell id="m2GISxBokxtjwMpfDroy-38" value="Messages" style="rounded=0;whiteSpace=wrap;html=1;labelPosition=center;verticalLabelPosition=middle;align=center;verticalAlign=top;spacingTop=10;" vertex="1" parent="1">
          <mxGeometry x="770" y="400" width="300" height="210" as="geometry" />
        </mxCell>
        <mxCell id="m2GISxBokxtjwMpfDroy-39" value="Inbox" style="rounded=0;whiteSpace=wrap;html=1;" vertex="1" parent="1">
          <mxGeometry x="790" y="447.5" width="120" height="60" as="geometry" />
        </mxCell>
        <mxCell id="m2GISxBokxtjwMpfDroy-40" value="News feed" style="rounded=0;whiteSpace=wrap;html=1;" vertex="1" parent="1">
          <mxGeometry x="930" y="447.5" width="120" height="60" as="geometry" />
        </mxCell>
        <mxCell id="m2GISxBokxtjwMpfDroy-41" value="Events" style="rounded=0;whiteSpace=wrap;html=1;" vertex="1" parent="1">
          <mxGeometry x="930" y="527.5" width="120" height="60" as="geometry" />
        </mxCell>
        <mxCell id="m2GISxBokxtjwMpfDroy-42" value="Status updates" style="rounded=0;whiteSpace=wrap;html=1;" vertex="1" parent="1">
          <mxGeometry x="790" y="527.5" width="120" height="60" as="geometry" />
        </mxCell>
        <mxCell id="m2GISxBokxtjwMpfDroy-43" value="" style="endArrow=none;html=1;rounded=0;exitX=0.5;exitY=0;exitDx=0;exitDy=0;" edge="1" parent="1" source="m2GISxBokxtjwMpfDroy-38" target="m2GISxBokxtjwMpfDroy-25">
          <mxGeometry width="50" height="50" relative="1" as="geometry">
            <mxPoint x="660" y="340" as="sourcePoint" />
            <mxPoint x="700" y="360" as="targetPoint" />
          </mxGeometry>
        </mxCell>
        <mxCell id="m2GISxBokxtjwMpfDroy-44" value="" style="endArrow=none;html=1;rounded=0;exitX=1;exitY=0.5;exitDx=0;exitDy=0;entryX=0.5;entryY=0;entryDx=0;entryDy=0;" edge="1" parent="1" source="m2GISxBokxtjwMpfDroy-34" target="m2GISxBokxtjwMpfDroy-45">
          <mxGeometry width="50" height="50" relative="1" as="geometry">
            <mxPoint x="660" y="340" as="sourcePoint" />
            <mxPoint x="460" y="690" as="targetPoint" />
          </mxGeometry>
        </mxCell>
        <mxCell id="m2GISxBokxtjwMpfDroy-45" value="Public profile/Friend profile" style="rounded=0;whiteSpace=wrap;html=1;labelPosition=center;verticalLabelPosition=middle;align=center;verticalAlign=top;spacingTop=10;" vertex="1" parent="1">
          <mxGeometry x="450" y="670" width="450" height="270" as="geometry" />
        </mxCell>
        <mxCell id="m2GISxBokxtjwMpfDroy-50" value="" style="endArrow=none;html=1;rounded=0;entryX=0.5;entryY=1;entryDx=0;entryDy=0;exitX=0.5;exitY=0;exitDx=0;exitDy=0;" edge="1" parent="1" source="m2GISxBokxtjwMpfDroy-45" target="m2GISxBokxtjwMpfDroy-30">
          <mxGeometry width="50" height="50" relative="1" as="geometry">
            <mxPoint x="620" y="560" as="sourcePoint" />
            <mxPoint x="670" y="510" as="targetPoint" />
          </mxGeometry>
        </mxCell>
        <mxCell id="m2GISxBokxtjwMpfDroy-51" value="" style="endArrow=none;html=1;rounded=0;entryX=-0.003;entryY=0.705;entryDx=0;entryDy=0;entryPerimeter=0;exitX=0.5;exitY=0;exitDx=0;exitDy=0;" edge="1" parent="1" source="m2GISxBokxtjwMpfDroy-45" target="m2GISxBokxtjwMpfDroy-38">
          <mxGeometry width="50" height="50" relative="1" as="geometry">
            <mxPoint x="620" y="660" as="sourcePoint" />
            <mxPoint x="670" y="610" as="targetPoint" />
          </mxGeometry>
        </mxCell>
        <mxCell id="m2GISxBokxtjwMpfDroy-52" value="People database" style="rounded=0;whiteSpace=wrap;html=1;" vertex="1" parent="1">
          <mxGeometry x="480" y="750" width="120" height="60" as="geometry" />
        </mxCell>
        <mxCell id="m2GISxBokxtjwMpfDroy-53" value="Public Profile" style="rounded=0;whiteSpace=wrap;html=1;" vertex="1" parent="1">
          <mxGeometry x="750" y="750" width="120" height="60" as="geometry" />
        </mxCell>
        <mxCell id="m2GISxBokxtjwMpfDroy-55" value="" style="endArrow=none;html=1;rounded=0;exitX=1;exitY=0.5;exitDx=0;exitDy=0;entryX=0;entryY=0.5;entryDx=0;entryDy=0;" edge="1" parent="1" source="m2GISxBokxtjwMpfDroy-52" target="m2GISxBokxtjwMpfDroy-53">
          <mxGeometry width="50" height="50" relative="1" as="geometry">
            <mxPoint x="620" y="660" as="sourcePoint" />
            <mxPoint x="670" y="610" as="targetPoint" />
          </mxGeometry>
        </mxCell>
        <mxCell id="m2GISxBokxtjwMpfDroy-56" value="Friends/public profile" style="edgeLabel;html=1;align=center;verticalAlign=middle;resizable=0;points=[];" vertex="1" connectable="0" parent="m2GISxBokxtjwMpfDroy-55">
          <mxGeometry x="0.16" y="1" relative="1" as="geometry">
            <mxPoint as="offset" />
          </mxGeometry>
        </mxCell>
        <mxCell id="m2GISxBokxtjwMpfDroy-57" value="Search" style="rounded=0;whiteSpace=wrap;html=1;" vertex="1" parent="1">
          <mxGeometry x="480" y="850" width="120" height="60" as="geometry" />
        </mxCell>
        <mxCell id="m2GISxBokxtjwMpfDroy-58" value="" style="endArrow=none;html=1;rounded=0;exitX=0.5;exitY=0;exitDx=0;exitDy=0;entryX=0.5;entryY=1;entryDx=0;entryDy=0;" edge="1" parent="1" source="m2GISxBokxtjwMpfDroy-57" target="m2GISxBokxtjwMpfDroy-52">
          <mxGeometry width="50" height="50" relative="1" as="geometry">
            <mxPoint x="620" y="560" as="sourcePoint" />
            <mxPoint x="670" y="510" as="targetPoint" />
          </mxGeometry>
        </mxCell>
        <mxCell id="m2GISxBokxtjwMpfDroy-59" value="" style="curved=1;endArrow=none;html=1;rounded=0;exitX=0;exitY=0.5;exitDx=0;exitDy=0;entryX=0.5;entryY=1;entryDx=0;entryDy=0;endFill=0;" edge="1" parent="1" source="m2GISxBokxtjwMpfDroy-57" target="m2GISxBokxtjwMpfDroy-10">
          <mxGeometry width="50" height="50" relative="1" as="geometry">
            <mxPoint x="620" y="560" as="sourcePoint" />
            <mxPoint x="670" y="510" as="targetPoint" />
            <Array as="points">
              <mxPoint x="300" y="800" />
              <mxPoint x="190" y="660" />
              <mxPoint x="240" y="480" />
            </Array>
          </mxGeometry>
        </mxCell>
      </root>
    </mxGraphModel>
  </diagram>
</mxfile>
